<svg xmlns="http://www.w3.org/2000/svg" xmlns:xlink="http://www.w3.org/1999/xlink" width="2000" zoomAndPan="magnify" viewBox="0 0 1500 1499.999933" height="2000" preserveAspectRatio="xMidYMid meet" version="1.0"><defs><clipPath id="35d1dc4e1a"><path d="M 21.808594 7.320312 L 1478.191406 7.320312 L 1478.191406 1500 L 21.808594 1500 Z M 21.808594 7.320312 " clip-rule="nonzero"/></clipPath><clipPath id="ee5088dae6"><path d="M 96.808594 7.320312 L 1403.191406 7.320312 C 1423.082031 7.320312 1442.160156 15.222656 1456.226562 29.285156 C 1470.289062 43.351562 1478.191406 62.429688 1478.191406 82.320312 L 1478.191406 1425 C 1478.191406 1444.890625 1470.289062 1463.96875 1456.226562 1478.03125 C 1442.160156 1492.097656 1423.082031 1500 1403.191406 1500 L 96.808594 1500 C 76.917969 1500 57.839844 1492.097656 43.773438 1478.03125 C 29.710938 1463.96875 21.808594 1444.890625 21.808594 1425 L 21.808594 82.320312 C 21.808594 62.429688 29.710938 43.351562 43.773438 29.285156 C 57.839844 15.222656 76.917969 7.320312 96.808594 7.320312 Z M 96.808594 7.320312 " clip-rule="nonzero"/></clipPath><clipPath id="5cf20c9338"><path d="M 0.808594 0.320312 L 1457.191406 0.320312 L 1457.191406 1491 L 0.808594 1491 Z M 0.808594 0.320312 " clip-rule="nonzero"/></clipPath><clipPath id="e29f2bc2e2"><path d="M 75.808594 0.320312 L 1382.191406 0.320312 C 1402.082031 0.320312 1421.160156 8.222656 1435.226562 22.285156 C 1449.289062 36.351562 1457.191406 55.429688 1457.191406 75.320312 L 1457.191406 1418 C 1457.191406 1437.890625 1449.289062 1456.96875 1435.226562 1471.03125 C 1421.160156 1485.097656 1402.082031 1493 1382.191406 1493 L 75.808594 1493 C 55.917969 1493 36.839844 1485.097656 22.773438 1471.03125 C 8.710938 1456.96875 0.808594 1437.890625 0.808594 1418 L 0.808594 75.320312 C 0.808594 55.429688 8.710938 36.351562 22.773438 22.285156 C 36.839844 8.222656 55.917969 0.320312 75.808594 0.320312 Z M 75.808594 0.320312 " clip-rule="nonzero"/></clipPath><clipPath id="1314ea5d87"><rect x="0" width="1458" y="0" height="1493"/></clipPath><clipPath id="858cc4b0c8"><path d="M 381 529 L 1117 529 L 1117 977 L 381 977 Z M 381 529 " clip-rule="nonzero"/></clipPath><clipPath id="50614eee07"><path d="M 494.949219 353.261719 L 1222.507812 761.101562 L 1002.703125 1153.214844 L 275.144531 745.378906 Z M 494.949219 353.261719 " clip-rule="nonzero"/></clipPath><clipPath id="2a89b61c72"><path d="M 858.84375 557.246094 C 838.683594 545.945312 816.066406 539.730469 792.957031 539.148438 L 421.730469 529.753906 C 407.054688 529.378906 393.378906 537.160156 386.203125 549.96875 C 379.023438 562.773438 379.523438 578.5 387.496094 590.824219 L 589.21875 902.601562 C 601.777344 922.007812 618.878906 938.058594 639.042969 949.363281 C 659.203125 960.664062 681.820312 966.878906 704.929688 967.460938 L 1076.15625 976.855469 C 1090.832031 977.226562 1104.507812 969.449219 1111.683594 956.640625 C 1118.863281 943.835938 1118.363281 928.109375 1110.390625 915.785156 L 908.664062 604.007812 C 896.109375 584.601562 879.007812 568.550781 858.84375 557.246094 Z M 858.84375 557.246094 " clip-rule="nonzero"/></clipPath><clipPath id="52807ddb72"><path d="M 0 0.199219 L 736 0.199219 L 736 448 L 0 448 Z M 0 0.199219 " clip-rule="nonzero"/></clipPath><clipPath id="d02c61c1cc"><path d="M 113.949219 -175.738281 L 841.507812 232.101562 L 621.703125 624.214844 L -105.855469 216.378906 Z M 113.949219 -175.738281 " clip-rule="nonzero"/></clipPath><clipPath id="ee4c2b98c0"><path d="M 477.84375 28.246094 C 457.683594 16.945312 435.066406 10.730469 411.957031 10.148438 L 40.730469 0.753906 C 26.054688 0.378906 12.378906 8.160156 5.203125 20.96875 C -1.976562 33.773438 -1.476562 49.5 6.496094 61.824219 L 208.21875 373.601562 C 220.777344 393.007812 237.878906 409.058594 258.042969 420.363281 C 278.203125 431.664062 300.820312 437.878906 323.929688 438.460938 L 695.15625 447.855469 C 709.832031 448.226562 723.507812 440.449219 730.683594 427.640625 C 737.863281 414.835938 737.363281 399.109375 729.390625 386.785156 L 527.664062 75.007812 C 515.109375 55.601562 498.007812 39.550781 477.84375 28.246094 Z M 477.84375 28.246094 " clip-rule="nonzero"/></clipPath><clipPath id="1bf8c43f80"><rect x="0" width="736" y="0" height="448"/></clipPath><clipPath id="63d2fc5d2e"><path d="M 374 911 L 1124 911 L 1124 1343 L 374 1343 Z M 374 911 " clip-rule="nonzero"/></clipPath><clipPath id="f5c79bc704"><path d="M 275.054688 1113.007812 L 1017.65625 737.121094 L 1221.457031 1139.757812 L 478.855469 1515.640625 Z M 275.054688 1113.007812 " clip-rule="nonzero"/></clipPath><clipPath id="959b26c21c"><path d="M 647.355469 926.527344 C 627.1875 936.734375 609.816406 951.707031 596.746094 970.148438 L 381.554688 1273.746094 C 373.066406 1285.722656 371.902344 1301.414062 378.53125 1314.511719 C 385.160156 1327.609375 398.496094 1335.960938 413.171875 1336.210938 L 785.246094 1342.550781 C 807.84375 1342.9375 830.199219 1337.800781 850.363281 1327.59375 C 870.53125 1317.386719 887.902344 1302.414062 900.972656 1283.972656 L 1116.164062 980.375 C 1124.652344 968.398438 1125.816406 952.707031 1119.1875 939.609375 C 1112.558594 926.511719 1099.222656 918.160156 1084.546875 917.910156 L 712.472656 911.570312 C 689.875 911.183594 667.519531 916.320312 647.355469 926.527344 Z M 647.355469 926.527344 " clip-rule="nonzero"/></clipPath><clipPath id="2fc5c16cbf"><path d="M 0 0.0390625 L 750 0.0390625 L 750 432 L 0 432 Z M 0 0.0390625 " clip-rule="nonzero"/></clipPath><clipPath id="42b8c32ebd"><path d="M -98.945312 202.007812 L 643.65625 -173.878906 L 847.457031 228.757812 L 104.855469 604.640625 Z M -98.945312 202.007812 " clip-rule="nonzero"/></clipPath><clipPath id="cab5d8307a"><path d="M 273.355469 15.527344 C 253.1875 25.734375 235.816406 40.707031 222.746094 59.148438 L 7.554688 362.746094 C -0.933594 374.722656 -2.097656 390.414062 4.53125 403.511719 C 11.160156 416.609375 24.496094 424.960938 39.171875 425.210938 L 411.246094 431.550781 C 433.84375 431.9375 456.199219 426.800781 476.363281 416.59375 C 496.53125 406.386719 513.902344 391.414062 526.972656 372.972656 L 742.164062 69.375 C 750.652344 57.398438 751.816406 41.707031 745.1875 28.609375 C 738.558594 15.511719 725.222656 7.160156 710.546875 6.910156 L 338.472656 0.570312 C 315.875 0.183594 293.519531 5.320312 273.355469 15.527344 Z M 273.355469 15.527344 " clip-rule="nonzero"/></clipPath><clipPath id="93bee6c5c4"><rect x="0" width="750" y="0" height="432"/></clipPath><clipPath id="ee4942d8d6"><path d="M 376 157 L 1126 157 L 1126 589 L 376 589 Z M 376 157 " clip-rule="nonzero"/></clipPath><clipPath id="0af03f60ae"><path d="M 277.339844 358.878906 L 1019.941406 -17.003906 L 1223.742188 385.628906 L 481.140625 761.515625 Z M 277.339844 358.878906 " clip-rule="nonzero"/></clipPath><clipPath id="c4f2998d53"><path d="M 649.640625 172.398438 C 629.472656 182.609375 612.101562 197.582031 599.03125 216.023438 L 383.839844 519.617188 C 375.351562 531.59375 374.1875 547.285156 380.816406 560.382812 C 387.449219 573.480469 400.78125 581.832031 415.460938 582.082031 L 787.53125 588.425781 C 810.128906 588.808594 832.484375 583.675781 852.648438 573.46875 C 872.816406 563.257812 890.1875 548.285156 903.257812 529.84375 L 1118.449219 226.25 C 1126.9375 214.273438 1128.101562 198.582031 1121.472656 185.484375 C 1114.84375 172.386719 1101.507812 164.035156 1086.832031 163.785156 L 714.757812 157.445312 C 692.160156 157.058594 669.808594 162.191406 649.640625 172.398438 Z M 649.640625 172.398438 " clip-rule="nonzero"/></clipPath><clipPath id="aa457cb5b4"><path d="M 0 0 L 750 0 L 750 431.960938 L 0 431.960938 Z M 0 0 " clip-rule="nonzero"/></clipPath><clipPath id="365cc102bb"><path d="M -98.660156 201.878906 L 643.941406 -174.003906 L 847.742188 228.628906 L 105.140625 604.515625 Z M -98.660156 201.878906 " clip-rule="nonzero"/></clipPath><clipPath id="b7fbc38f5e"><path d="M 273.640625 15.398438 C 253.472656 25.609375 236.101562 40.582031 223.03125 59.023438 L 7.839844 362.617188 C -0.648438 374.59375 -1.8125 390.285156 4.816406 403.382812 C 11.449219 416.480469 24.78125 424.832031 39.460938 425.082031 L 411.53125 431.425781 C 434.128906 431.808594 456.484375 426.675781 476.648438 416.46875 C 496.816406 406.257812 514.1875 391.285156 527.257812 372.84375 L 742.449219 69.25 C 750.9375 57.273438 752.101562 41.582031 745.472656 28.484375 C 738.84375 15.386719 725.507812 7.035156 710.832031 6.785156 L 338.757812 0.445312 C 316.160156 0.0585938 293.808594 5.191406 273.640625 15.398438 Z M 273.640625 15.398438 " clip-rule="nonzero"/></clipPath><clipPath id="2f583ddbea"><rect x="0" width="750" y="0" height="432"/></clipPath></defs><g clip-path="url(#35d1dc4e1a)"><g clip-path="url(#ee5088dae6)"><g transform="matrix(1, 0, 0, 1, 21, 7)"><g clip-path="url(#1314ea5d87)"><g clip-path="url(#5cf20c9338)"><g clip-path="url(#e29f2bc2e2)"><path fill="#08b5a5" d="M 0.808594 0.320312 L 1457.191406 0.320312 L 1457.191406 1490.835938 L 0.808594 1490.835938 Z M 0.808594 0.320312 " fill-opacity="1" fill-rule="nonzero"/></g></g></g></g></g></g><g clip-path="url(#858cc4b0c8)"><g clip-path="url(#50614eee07)"><g clip-path="url(#2a89b61c72)"><g transform="matrix(1, 0, 0, 1, 381, 529)"><g clip-path="url(#1bf8c43f80)"><g clip-path="url(#52807ddb72)"><g clip-path="url(#d02c61c1cc)"><g clip-path="url(#ee4c2b98c0)"><path fill="#2edfcf" d="M 75.65625 -197.203125 L 879.796875 253.566406 L 659.996094 645.679688 L -144.148438 194.910156 Z M 75.65625 -197.203125 " fill-opacity="1" fill-rule="nonzero"/></g></g></g></g></g></g></g></g><g clip-path="url(#63d2fc5d2e)"><g clip-path="url(#f5c79bc704)"><g clip-path="url(#959b26c21c)"><g transform="matrix(1, 0, 0, 1, 374, 911)"><g clip-path="url(#93bee6c5c4)"><g clip-path="url(#2fc5c16cbf)"><g clip-path="url(#42b8c32ebd)"><g clip-path="url(#cab5d8307a)"><path fill="#a7f4ed" d="M -137.320312 223.398438 L 683.613281 -192.136719 L 886.625 208.933594 L 65.6875 624.464844 Z M -137.320312 223.398438 " fill-opacity="1" fill-rule="nonzero"/></g></g></g></g></g></g></g></g><g clip-path="url(#ee4942d8d6)"><g clip-path="url(#0af03f60ae)"><g clip-path="url(#c4f2998d53)"><g transform="matrix(1, 0, 0, 1, 376, 157)"><g clip-path="url(#2f583ddbea)"><g clip-path="url(#aa457cb5b4)"><g clip-path="url(#365cc102bb)"><g clip-path="url(#b7fbc38f5e)"><path fill="#21d4c3" d="M -137.035156 223.273438 L 683.898438 -192.261719 L 886.910156 208.804688 L 65.976562 624.339844 Z M -137.035156 223.273438 " fill-opacity="1" fill-rule="nonzero"/></g></g></g></g></g></g></g></g></svg>